<?xml version="1.0" encoding="iso-8859-1"?>
<!-- Generator: Adobe Illustrator 16.0.0, SVG Export Plug-In . SVG Version: 6.00 Build 0)  -->
<!DOCTYPE svg PUBLIC "-//W3C//DTD SVG 1.1//EN" "http://www.w3.org/Graphics/SVG/1.1/DTD/svg11.dtd">
<svg xmlns="http://www.w3.org/2000/svg" xmlns:xlink="http://www.w3.org/1999/xlink" version="1.1" id="Capa_1" x="0px" y="0px" width="512px" height="512px" viewBox="0 0 473.634 473.634" style="enable-background:new 0 0 473.634 473.634;" xml:space="preserve">
<g>
	<path d="M200.811,174.723h107.377v25.333h14.315v-25.333h110.153v25.333h14.312V45.482c0-9.207-7.49-16.698-16.692-16.698H16.697   C7.485,28.785,0,36.281,0,45.482v365.86c0,5.652,2.839,10.638,7.155,13.663v2.633h5.988c1.149,0.252,2.331,0.401,3.554,0.401   h189.975v-14.722h-5.862v-45.331h5.862v-14.32h-5.862v-47.004h5.862V292.35h-5.862v-49.632h5.862v-14.309h-5.862V174.723z    M322.503,43.094h107.759c1.316,0,2.395,1.073,2.395,2.389v48.121H322.503V43.094z M322.503,107.915h110.153v52.493H322.503   V107.915z M200.811,43.094h107.377v50.51H200.811V43.094z M200.811,107.915h107.377v52.493H200.811V107.915z M66.005,413.318   H15.458c-0.673-0.416-1.149-1.133-1.149-1.987v-43.344h51.697V413.318z M66.005,353.667H14.309v-47.004h51.697V353.667z    M66.005,292.354H14.309v-49.626h51.697V292.354z M66.005,228.409H14.309v-53.686h51.697V228.409z M66.005,160.408H14.309v-52.493   h51.697V160.408z M186.493,413.318H80.318v-45.331h106.175V413.318z M186.493,353.667H80.318v-47.004h106.175V353.667z    M186.493,292.354H80.318v-49.626h106.175V292.354z M186.493,228.409H80.318v-53.686h106.175V228.409z M186.493,160.408H80.318   v-52.493h106.175V160.408z M186.493,93.598H80.318V43.089h106.175V93.598z M251.279,286.001c0-8.7,7.054-15.759,15.764-15.759   c8.707,0,15.766,7.059,15.766,15.759c0,4.366-1.768,8.307-4.635,11.163l24.998,39.124c2.061-0.818,4.3-1.302,6.658-1.302   c4.744,0,9.034,1.871,12.251,4.882l32.806-23.979c-0.737-1.739-1.148-3.655-1.148-5.669c0-8.082,6.556-14.643,14.638-14.643   s14.644,6.561,14.644,14.643c0,1.643-0.336,3.185-0.828,4.663l34.386,21.507c3.607-3.146,8.301-5.057,13.446-5.057   c11.314,0,20.487,9.17,20.487,20.485c0,11.312-9.179,20.487-20.487,20.487c-11.312,0-20.483-9.176-20.483-20.487   c0-3.71,0.998-7.168,2.708-10.167l-33.596-21.023c-2.65,2.61-6.273,4.229-10.276,4.229c-3.624,0-6.896-1.373-9.45-3.55   l-32.861,24.016c1.106,2.337,1.773,4.925,1.773,7.679c0,9.952-8.066,18.019-18.014,18.019c-9.954,0-18.013-8.066-18.013-18.019   c0-5.145,2.194-9.775,5.664-13.058L272.45,300.76c-1.696,0.617-3.502,1.013-5.407,1.013   C258.344,301.772,251.279,294.713,251.279,286.001z M228.172,220.789v224.06h245.462v-224.06H228.172z M463.491,434.719H238.308   V230.921h225.188v203.797H463.491z" fill="#D80027"/>
</g>
<g>
</g>
<g>
</g>
<g>
</g>
<g>
</g>
<g>
</g>
<g>
</g>
<g>
</g>
<g>
</g>
<g>
</g>
<g>
</g>
<g>
</g>
<g>
</g>
<g>
</g>
<g>
</g>
<g>
</g>
</svg>
