<?xml version="1.0" encoding="iso-8859-1"?>
<!-- Generator: Adobe Illustrator 16.0.0, SVG Export Plug-In . SVG Version: 6.00 Build 0)  -->
<!DOCTYPE svg PUBLIC "-//W3C//DTD SVG 1.1//EN" "http://www.w3.org/Graphics/SVG/1.1/DTD/svg11.dtd">
<svg xmlns="http://www.w3.org/2000/svg" xmlns:xlink="http://www.w3.org/1999/xlink" version="1.1" id="Capa_1" x="0px" y="0px" width="512px" height="512px" viewBox="0 0 31.831 31.831" style="enable-background:new 0 0 31.831 31.831;" xml:space="preserve">
<g>
	<g>
		<path d="M0,15.114h14.69V0.422H0V15.114z M4.07,7.015h2.521V4.492h1.505v2.523h2.522V8.52H8.097v2.523H6.592V8.521H4.07V7.015z" fill="#D80027"/>
		<path d="M0,31.409h14.69v-14.69H0V31.409z M4.07,23.311h6.549v1.504H4.07V23.311z" fill="#D80027"/>
		<path d="M17.139,0.422v14.692h14.692V0.422H17.139z M27.807,9.552l-1.063,1.063L24.96,8.832l-1.785,1.785l-1.063-1.064    l1.783-1.785l-1.783-1.784l1.062-1.063l1.784,1.784l1.785-1.784l1.063,1.064l-1.783,1.784L27.807,9.552z" fill="#D80027"/>
		<path d="M17.139,31.409h14.692v-14.69H17.139V31.409z M25.984,27.491c-0.062,0.147-0.15,0.277-0.26,0.387    c-0.108,0.109-0.236,0.197-0.388,0.268c-0.147,0.067-0.308,0.102-0.476,0.102c-0.172,0-0.329-0.033-0.479-0.102    c-0.147-0.07-0.276-0.158-0.387-0.268c-0.108-0.109-0.196-0.238-0.261-0.387c-0.063-0.149-0.098-0.31-0.098-0.479    s0.033-0.329,0.098-0.479c0.063-0.148,0.15-0.277,0.261-0.387c0.108-0.108,0.237-0.194,0.387-0.261    c0.149-0.063,0.308-0.096,0.479-0.096c0.168,0,0.328,0.032,0.476,0.096c0.151,0.065,0.278,0.151,0.388,0.261    c0.108,0.109,0.196,0.238,0.26,0.387c0.064,0.149,0.099,0.309,0.099,0.479S26.05,27.341,25.984,27.491z M23.736,20.637    c0.063-0.148,0.15-0.277,0.261-0.387c0.108-0.109,0.237-0.197,0.387-0.268c0.149-0.067,0.308-0.102,0.479-0.102    c0.169,0,0.328,0.034,0.476,0.102c0.151,0.069,0.278,0.158,0.388,0.268c0.108,0.109,0.196,0.238,0.26,0.387    c0.064,0.149,0.099,0.309,0.099,0.479c0,0.168-0.033,0.328-0.099,0.478c-0.062,0.149-0.15,0.278-0.26,0.388    c-0.108,0.108-0.235,0.195-0.388,0.26c-0.147,0.065-0.307,0.097-0.476,0.097c-0.172,0-0.329-0.031-0.479-0.097    c-0.147-0.064-0.276-0.151-0.387-0.26c-0.11-0.109-0.196-0.238-0.261-0.388c-0.063-0.149-0.098-0.31-0.098-0.478    C23.641,20.946,23.673,20.787,23.736,20.637z M21.663,23.177h6.59v1.851h-6.59V23.177z" fill="#D80027"/>
	</g>
</g>
<g>
</g>
<g>
</g>
<g>
</g>
<g>
</g>
<g>
</g>
<g>
</g>
<g>
</g>
<g>
</g>
<g>
</g>
<g>
</g>
<g>
</g>
<g>
</g>
<g>
</g>
<g>
</g>
<g>
</g>
</svg>
